<?xml version="1.0" encoding="UTF-8" standalone="no"?>
<!DOCTYPE svg PUBLIC "-//W3C//DTD SVG 1.1//EN" "http://www.w3.org/Graphics/SVG/1.1/DTD/svg11.dtd">
<svg width="100%" height="100%" viewBox="0 0 800 600" version="1.1" xmlns="http://www.w3.org/2000/svg" xmlns:xlink="http://www.w3.org/1999/xlink" xml:space="preserve" xmlns:serif="http://www.serif.com/" style="fill-rule:evenodd;clip-rule:evenodd;stroke-linejoin:round;stroke-miterlimit:2;">
    <g transform="matrix(1.29299,0,0,1.28718,363.907,-186.769)">
        <ellipse cx="139.9" cy="506.7" rx="28.7" ry="8.9" style="fill:rgb(146,146,146);"/>
    </g>
    <g transform="matrix(1.29299,0,0,1.28718,363.907,-186.769)">
        <path d="M139.9,560.4C122.2,560.4 107.9,555.5 107.9,549.5L107.9,562.7C107.9,568.7 122.2,573.6 139.9,573.6C157.6,573.6 171.9,568.7 171.9,562.7L171.9,549.5C171.9,555.5 157.6,560.4 139.9,560.4Z" style="fill:rgb(192,192,192);fill-rule:nonzero;"/>
    </g>
    <g transform="matrix(1.29299,0,0,1.28718,363.907,-186.769)">
        <path d="M139.9,518.5C122.2,518.5 107.9,513.6 107.9,507.6L107.9,519.9C107.9,525.9 122.2,530.8 139.9,530.8C157.6,530.8 171.9,525.9 171.9,519.9L171.9,507.6C171.9,513.6 157.6,518.5 139.9,518.5Z" style="fill:rgb(192,192,192);fill-rule:nonzero;"/>
    </g>
    <g transform="matrix(1.29299,0,0,1.28718,363.907,-186.769)">
        <path d="M139.9,539.1C122.2,539.1 107.9,534.2 107.9,528.2L107.9,541.2C107.9,547.2 122.2,552.1 139.9,552.1C157.6,552.1 171.9,547.2 171.9,541.2L171.9,528.2C171.9,534.2 157.6,539.1 139.9,539.1Z" style="fill:rgb(192,192,192);fill-rule:nonzero;"/>
    </g>
    <g transform="matrix(1.29299,0,0,1.28718,363.907,-186.769)">
        <path d="M139.9,532.9C122.2,532.9 107.9,528 107.9,522L107.9,525.8C107.9,531.8 122.2,536.7 139.9,536.7C157.6,536.7 171.9,531.8 171.9,525.8L171.9,522C171.9,528 157.6,532.9 139.9,532.9Z" style="fill:rgb(146,146,146);fill-rule:nonzero;"/>
    </g>
    <g transform="matrix(1.29299,0,0,1.28718,363.907,-186.769)">
        <path d="M139.9,554.5C122.2,554.5 107.9,549.6 107.9,543.6L107.9,547.4C107.9,553.4 122.2,558.3 139.9,558.3C157.6,558.3 171.9,553.4 171.9,547.4L171.9,543.6C171.9,549.6 157.6,554.5 139.9,554.5Z" style="fill:rgb(146,146,146);fill-rule:nonzero;"/>
    </g>
    <g transform="matrix(1.29299,0,0,1.28718,464.98,-144.292)">
        <ellipse cx="139.9" cy="506.7" rx="28.7" ry="8.9" style="fill:rgb(146,146,146);"/>
    </g>
    <g transform="matrix(1.29299,0,0,1.28718,464.98,-144.292)">
        <path d="M139.9,560.4C122.2,560.4 107.9,555.5 107.9,549.5L107.9,562.7C107.9,568.7 122.2,573.6 139.9,573.6C157.6,573.6 171.9,568.7 171.9,562.7L171.9,549.5C171.9,555.5 157.6,560.4 139.9,560.4Z" style="fill:rgb(192,192,192);fill-rule:nonzero;"/>
    </g>
    <g transform="matrix(1.29299,0,0,1.28718,464.98,-144.292)">
        <path d="M139.9,518.5C122.2,518.5 107.9,513.6 107.9,507.6L107.9,519.9C107.9,525.9 122.2,530.8 139.9,530.8C157.6,530.8 171.9,525.9 171.9,519.9L171.9,507.6C171.9,513.6 157.6,518.5 139.9,518.5Z" style="fill:rgb(192,192,192);fill-rule:nonzero;"/>
    </g>
    <g transform="matrix(1.29299,0,0,1.28718,464.98,-144.292)">
        <path d="M139.9,539.1C122.2,539.1 107.9,534.2 107.9,528.2L107.9,541.2C107.9,547.2 122.2,552.1 139.9,552.1C157.6,552.1 171.9,547.2 171.9,541.2L171.9,528.2C171.9,534.2 157.6,539.1 139.9,539.1Z" style="fill:rgb(192,192,192);fill-rule:nonzero;"/>
    </g>
    <g transform="matrix(1.29299,0,0,1.28718,464.98,-144.292)">
        <path d="M139.9,532.9C122.2,532.9 107.9,528 107.9,522L107.9,525.8C107.9,531.8 122.2,536.7 139.9,536.7C157.6,536.7 171.9,531.8 171.9,525.8L171.9,522C171.9,528 157.6,532.9 139.9,532.9Z" style="fill:rgb(146,146,146);fill-rule:nonzero;"/>
    </g>
    <g transform="matrix(1.29299,0,0,1.28718,464.98,-144.292)">
        <path d="M139.9,554.5C122.2,554.5 107.9,549.6 107.9,543.6L107.9,547.4C107.9,553.4 122.2,558.3 139.9,558.3C157.6,558.3 171.9,553.4 171.9,547.4L171.9,543.6C171.9,549.6 157.6,554.5 139.9,554.5Z" style="fill:rgb(146,146,146);fill-rule:nonzero;"/>
    </g>
    <g transform="matrix(1.29299,0,0,1.28718,363.907,-186.769)">
        <ellipse cx="300.4" cy="506.7" rx="28.7" ry="8.9" style="fill:rgb(146,146,146);"/>
    </g>
    <g transform="matrix(1.29299,0,0,1.28718,363.907,-186.769)">
        <path d="M300.4,560.4C282.7,560.4 268.4,555.5 268.4,549.5L268.4,562.7C268.4,568.7 282.7,573.6 300.4,573.6C318.1,573.6 332.4,568.7 332.4,562.7L332.4,549.5C332.4,555.5 318.1,560.4 300.4,560.4Z" style="fill:rgb(192,192,192);fill-rule:nonzero;"/>
    </g>
    <g transform="matrix(1.29299,0,0,1.28718,363.907,-186.769)">
        <path d="M300.4,518.5C282.7,518.5 268.4,513.6 268.4,507.6L268.4,519.9C268.4,525.9 282.7,530.8 300.4,530.8C318.1,530.8 332.4,525.9 332.4,519.9L332.4,507.6C332.4,513.6 318.1,518.5 300.4,518.5Z" style="fill:rgb(192,192,192);fill-rule:nonzero;"/>
    </g>
    <g transform="matrix(1.29299,0,0,1.28718,363.907,-186.769)">
        <path d="M300.4,539.1C282.7,539.1 268.4,534.2 268.4,528.2L268.4,541.2C268.4,547.2 282.7,552.1 300.4,552.1C318.1,552.1 332.4,547.2 332.4,541.2L332.4,528.2C332.4,534.2 318.1,539.1 300.4,539.1Z" style="fill:rgb(192,192,192);fill-rule:nonzero;"/>
    </g>
    <g transform="matrix(1.29299,0,0,1.28718,363.907,-186.769)">
        <path d="M300.4,532.9C282.7,532.9 268.4,528 268.4,522L268.4,525.8C268.4,531.8 282.7,536.7 300.4,536.7C318.1,536.7 332.4,531.8 332.4,525.8L332.4,522C332.4,528 318.1,532.9 300.4,532.9Z" style="fill:rgb(146,146,146);fill-rule:nonzero;"/>
    </g>
    <g transform="matrix(1.29299,0,0,1.28718,363.907,-186.769)">
        <path d="M300.4,554.5C282.7,554.5 268.4,549.6 268.4,543.6L268.4,547.4C268.4,553.4 282.7,558.3 300.4,558.3C318.1,558.3 332.4,553.4 332.4,547.4L332.4,543.6C332.4,549.6 318.1,554.5 300.4,554.5Z" style="fill:rgb(146,146,146);fill-rule:nonzero;"/>
    </g>
    <g transform="matrix(1.29299,0,0,1.28718,363.907,-186.769)">
        <rect x="129.9" y="458.7" width="177.4" height="4.5" style="fill:rgb(214,214,214);"/>
    </g>
    <g transform="matrix(0.788016,0,0,1.19499,90.5873,-412.361)">
        <rect x="129.9" y="458.7" width="177.4" height="4.5" style="fill:rgb(214,214,214);"/>
    </g>
    <g transform="matrix(0.765193,0,0,1.19499,301.552,-415.049)">
        <rect x="129.9" y="458.7" width="177.4" height="4.5" style="fill:rgb(214,214,214);"/>
    </g>
    <g transform="matrix(1.29299,0,0,1.28718,363.907,-186.769)">
        <rect x="131" y="464.7" width="4.5" height="25" style="fill:rgb(214,214,214);"/>
    </g>
    <g transform="matrix(1.29299,0,0,1.28718,363.907,-186.769)">
        <circle cx="133.9" cy="460.7" r="9.4" style="fill:rgb(146,146,146);"/>
    </g>
    <g transform="matrix(1.29299,0,0,1.28718,363.907,-186.769)">
        <rect x="298" y="464.7" width="4.5" height="25" style="fill:rgb(214,214,214);"/>
    </g>
    <g transform="matrix(1.29299,0,0,1.28718,363.907,-186.769)">
        <circle cx="300.9" cy="460.7" r="9.4" style="fill:rgb(146,146,146);"/>
    </g>
    <g transform="matrix(1.29299,0,0,1.62923,363.907,-364.873)">
        <rect x="216.2" y="422.9" width="4.5" height="97.8" style="fill:rgb(214,214,214);"/>
    </g>
    <g transform="matrix(1.29299,0,0,1.28718,363.907,-186.769)">
        <circle cx="219.1" cy="460.7" r="9.4" style="fill:rgb(146,146,146);"/>
    </g>
    <g transform="matrix(0.766607,0,0,0.766607,-332.716,-284.707)">
        <path d="M913.9,477.5C899.7,477.5 888.1,489 888.1,503.3L888.1,511.5L896,511.5L896,503.5C896,493.7 903.8,485.5 913.6,485.4C923.6,485.2 931.7,493.3 931.7,503.3L931.7,511.5L939.6,511.5L939.6,503.3C939.7,489 928.1,477.5 913.9,477.5Z" style="fill:rgb(237,50,32);fill-rule:nonzero;"/>
        <path d="M938.5,519L889.2,519C884,519 879.8,523.2 879.8,528.4L879.8,573.5C879.8,578.7 884,582.9 889.2,582.9L938.5,582.9C943.7,582.9 947.9,578.7 947.9,573.5L947.9,528.4C947.9,523.2 943.7,519 938.5,519ZM913.9,563.6C908.7,563.6 904.4,559.4 904.4,554.1C904.4,551 905.9,548.2 908.3,546.5C907.3,545.3 906.7,543.7 906.7,541.9C906.7,537.9 909.9,534.7 913.9,534.7C917.9,534.7 921.1,537.9 921.1,541.9C921.1,543.6 920.5,545.2 919.5,546.5C921.8,548.2 923.4,551 923.4,554.1C923.4,559.4 919.1,563.6 913.9,563.6Z" style="fill:rgb(237,50,32);fill-rule:nonzero;"/>
    </g>
    <g transform="matrix(0.499057,0,0,0.499057,13.7994,63.2848)">
        <g transform="matrix(0.769722,0,0,0.769722,-352.609,-356.843)">
            <path d="M943,820.8L943,827.7C943,836.8 935.6,844.2 926.5,844.2L474.6,844.2C465.5,844.2 458.1,836.8 458.1,827.7L458.1,821.5L466.4,813.9L940.2,813.9L942.7,820.1C942.9,820.4 942.9,820.6 943,820.8Z" style="fill:rgb(125,148,150);fill-rule:nonzero;"/>
            <path d="M879,676.5L522.1,676.5C518.7,676.5 516,673.8 516,670.4L516,469.7C516,466.3 518.7,463.6 522.1,463.6L879,463.6C882.4,463.6 885.1,466.3 885.1,469.7L885.1,670.4C885.1,673.7 882.4,676.5 879,676.5Z" style="fill:rgb(125,148,150);fill-rule:nonzero;"/>
            <g transform="matrix(-1.83697e-16,1,-1,-1.83697e-16,1270.55,-130.529)">
                <rect x="618.6" y="410" width="163.8" height="320" style="fill:white;"/>
            </g>
            <g>
                <path d="M943,821.9C942.6,823.8 940.2,825.2 936.7,825.2L464.5,825.2C460,825.2 457.3,822.9 458.5,820.1L461,813.9L515,679.3C515.7,677.7 518.9,676.3 522.3,676.3L577,676.3L575.3,682.5C575.1,683.2 576.2,683.9 577.7,683.9L822,683.9C823.5,683.9 824.6,683.3 824.4,682.5L822.7,676.3L879,676.3C882.4,676.3 885.7,677.6 886.3,679.3L940.3,813.9L942.8,820.1C942.9,820.3 943,820.5 943,820.7C943.1,821.2 943.1,821.6 943,821.9Z" style="fill:rgb(157,185,186);fill-rule:nonzero;"/>
                <path d="M872.7,686.4L528,686.4C524.3,686.4 520.8,687.9 520.1,689.7L496,752.9C495.1,755.2 497.8,757.2 502,757.2L898.5,757.2C902.7,757.2 905.4,755.3 904.5,752.9L880.5,689.7C879.9,687.9 876.3,686.4 872.7,686.4Z" style="fill:white;fill-rule:nonzero;"/>
                <g>
                    <path d="M515,751.8L528.1,751.8C530.1,751.8 532.1,750.8 532.5,749.5L535.8,738.9C536.2,737.7 534.9,736.7 532.9,736.7L520.2,736.7C518.2,736.7 516.3,737.7 515.9,738.9L512.2,749.5C511.7,750.7 513,751.8 515,751.8Z" style="fill:rgb(125,148,150);fill-rule:nonzero;"/>
                    <path d="M544.6,751.8L557.7,751.8C559.7,751.8 561.6,750.8 562,749.5L564.7,738.9C565,737.7 563.7,736.7 561.7,736.7L549,736.7C547,736.7 545.1,737.7 544.8,738.9L541.6,749.5C541.2,750.7 542.5,751.8 544.6,751.8Z" style="fill:rgb(125,148,150);fill-rule:nonzero;"/>
                    <path d="M574.1,751.8L587.2,751.8C589.2,751.8 591.1,750.8 591.3,749.5L593.5,738.9C593.7,737.7 592.3,736.7 590.4,736.7L577.7,736.7C575.7,736.7 573.9,737.7 573.6,738.9L571,749.5C570.6,750.7 572,751.8 574.1,751.8Z" style="fill:rgb(125,148,150);fill-rule:nonzero;"/>
                    <path d="M790.7,751.8L803.4,751.8C805.5,751.8 807,750.7 806.8,749.4L804.7,739C804.5,737.8 802.6,736.8 800.5,736.8L788.1,736.8C786,736.8 784.5,737.8 784.7,739L786.4,749.4C786.7,750.7 788.6,751.8 790.7,751.8Z" style="fill:rgb(125,148,150);fill-rule:nonzero;"/>
                    <path d="M849.9,751.8L862.6,751.8C864.7,751.8 866.1,750.7 865.7,749.4L865.3,748.1C864.9,746.8 862.9,745.8 860.8,745.8L848.2,745.8C846.1,745.8 844.7,746.8 845,748.1L845.3,749.4C845.8,750.7 847.8,751.8 849.9,751.8Z" style="fill:rgb(125,148,150);fill-rule:nonzero;"/>
                    <path d="M847.3,742.5L859.8,742.5C861.9,742.5 863.2,741.5 862.9,740.2L862.5,739C862.1,737.8 860.1,736.8 858.1,736.8L845.7,736.8C843.6,736.8 842.3,737.8 842.6,739L842.9,740.2C843.3,741.5 845.2,742.5 847.3,742.5Z" style="fill:rgb(125,148,150);fill-rule:nonzero;"/>
                    <path d="M820.5,751.8L833.2,751.8C835.3,751.8 836.8,750.7 836.4,749.4L836.1,748.1C835.8,746.8 833.8,745.8 831.7,745.8L819.1,745.8C817,745.8 815.5,746.8 815.8,748.1L816.1,749.4C816.4,750.7 818.4,751.8 820.5,751.8Z" style="fill:rgb(125,148,150);fill-rule:nonzero;"/>
                    <path d="M877.9,751.8L890.6,751.8C892.7,751.8 894,750.7 893.6,749.4L893.1,748.1C892.6,746.8 890.6,745.8 888.5,745.8L875.9,745.8C873.8,745.8 872.5,746.8 872.9,748.1L873.3,749.4C873.7,750.7 875.8,751.8 877.9,751.8Z" style="fill:rgb(125,148,150);fill-rule:nonzero;"/>
                    <path d="M753.7,751.8L774.7,751.8C776.8,751.8 778.4,750.7 778.2,749.4L776.7,739C776.5,737.8 774.7,736.8 772.7,736.8L752.3,736.8C750.2,736.8 748.7,737.8 748.8,739L749.8,749.4C749.8,750.7 751.6,751.8 753.7,751.8Z" style="fill:rgb(125,148,150);fill-rule:nonzero;"/>
                    <path d="M606.5,751.8L737.1,751.8C739.2,751.8 740.8,750.7 740.7,749.4L740,739C739.9,737.8 738.2,736.8 736.1,736.8L609.2,736.8C607.1,736.8 605.3,737.8 605.1,739L603.2,749.4C602.9,750.7 604.4,751.8 606.5,751.8Z" style="fill:rgb(125,148,150);fill-rule:nonzero;"/>
                    <path d="M562.1,690.7L536,690.7C534.3,690.7 532.7,691.4 532.4,692.4L530,699C529.7,699.9 530.8,700.7 532.5,700.7L559.2,700.7C560.9,700.7 562.5,699.9 562.8,699L564.7,692.3C564.9,691.4 563.7,690.7 562.1,690.7Z" style="fill:rgb(125,148,150);fill-rule:nonzero;"/>
                    <path d="M562.8,705L532.2,705C529.8,705 527.5,706.1 527,707.4L525,713.1C524.5,714.5 526.1,715.6 528.5,715.6L559.8,715.6C562.2,715.6 564.5,714.5 564.9,713.1L566.5,707.4C566.8,706.1 565.2,705 562.8,705Z" style="fill:rgb(125,148,150);fill-rule:nonzero;"/>
                    <path d="M522.5,731.9L570,731.9C572.3,731.9 574.4,730.8 574.7,729.4L576.3,722.9C576.6,721.6 575.1,720.5 572.8,720.5L526.3,720.5C524.1,720.5 521.9,721.6 521.4,722.9L519.1,729.4C518.8,730.8 520.2,731.9 522.5,731.9Z" style="fill:rgb(125,148,150);fill-rule:nonzero;"/>
                    <path d="M588.1,690.7L574.8,690.7C573.1,690.7 571.6,691.4 571.3,692.4L569.5,699.1C569.2,700 570.4,700.8 572.1,700.8L585.7,700.8C587.4,700.8 589,700 589.2,699.1L590.7,692.4C591,691.4 589.8,690.7 588.1,690.7Z" style="fill:rgb(125,148,150);fill-rule:nonzero;"/>
                    <path d="M576.9,715.6L588.4,715.6C590.8,715.6 593.1,714.5 593.4,713.1L594.6,707.4C594.9,706 593.2,705 590.8,705L579.5,705C577.1,705 574.9,706.1 574.6,707.4L573.1,713.1C572.7,714.5 574.4,715.6 576.9,715.6Z" style="fill:rgb(125,148,150);fill-rule:nonzero;"/>
                    <path d="M586.4,731.9L598.8,731.9C601.2,731.9 603.3,730.7 603.6,729.3L604.8,723C605.1,721.6 603.4,720.5 601,720.5L588.9,720.5C586.6,720.5 584.4,721.6 584.1,723L582.6,729.3C582.4,730.7 584,731.9 586.4,731.9Z" style="fill:rgb(125,148,150);fill-rule:nonzero;"/>
                    <path d="M628.5,720.5L616.4,720.5C614.1,720.5 612,721.6 611.7,723L610.6,729.3C610.4,730.7 612.1,731.9 614.5,731.9L626.9,731.9C629.3,731.9 631.4,730.7 631.6,729.3L632.5,723C632.6,721.6 630.9,720.5 628.5,720.5Z" style="fill:rgb(125,148,150);fill-rule:nonzero;"/>
                    <path d="M656.1,720.5L644,720.5C641.7,720.5 639.6,721.6 639.5,723L638.7,729.3C638.5,730.7 640.3,731.9 642.7,731.9L655.1,731.9C657.5,731.9 659.5,730.7 659.6,729.3L660.1,723C660.2,721.6 658.4,720.5 656.1,720.5Z" style="fill:rgb(125,148,150);fill-rule:nonzero;"/>
                    <path d="M683.6,720.5L671.5,720.5C669.2,720.5 667.2,721.6 667.1,723L666.7,729.3C666.6,730.7 668.5,731.9 670.9,731.9L683.3,731.9C685.7,731.9 687.7,730.7 687.7,729.3L687.9,723C687.8,721.6 685.9,720.5 683.6,720.5Z" style="fill:rgb(125,148,150);fill-rule:nonzero;"/>
                    <path d="M711.1,720.5L699,720.5C696.7,720.5 694.8,721.6 694.7,723L694.6,729.3C694.6,730.7 696.5,731.9 698.9,731.9L711.3,731.9C713.7,731.9 715.6,730.7 715.6,729.3L715.4,723C715.4,721.6 713.4,720.5 711.1,720.5Z" style="fill:rgb(125,148,150);fill-rule:nonzero;"/>
                    <path d="M727.1,731.9L739.5,731.9C741.9,731.9 743.7,730.7 743.6,729.3L743.1,723C743,721.6 741,720.5 738.7,720.5L726.6,720.5C724.3,720.5 722.4,721.6 722.5,723L722.8,729.3C722.7,730.7 724.7,731.9 727.1,731.9Z" style="fill:rgb(125,148,150);fill-rule:nonzero;"/>
                    <path d="M766.1,720.5L754,720.5C751.7,720.5 749.9,721.6 750,723L750.6,729.3C750.7,730.7 752.8,731.9 755.2,731.9L767.6,731.9C770,731.9 771.8,730.7 771.6,729.3L770.7,723C770.5,721.6 768.5,720.5 766.1,720.5Z" style="fill:rgb(125,148,150);fill-rule:nonzero;"/>
                    <path d="M793.6,720.5L781.5,720.5C779.2,720.5 777.4,721.6 777.6,723L778.6,729.3C778.8,730.7 780.9,731.9 783.3,731.9L795.7,731.9C798.1,731.9 799.8,730.7 799.5,729.3L798.3,723C798.1,721.6 796,720.5 793.6,720.5Z" style="fill:rgb(125,148,150);fill-rule:nonzero;"/>
                    <path d="M879.8,720.5L812.2,720.5C810.3,720.5 809,721.4 809.2,722.5L810.8,729.8C811,730.9 812.8,731.8 814.7,731.8L883.9,731.8C885.8,731.8 887,730.9 886.6,729.8L883.9,722.5C883.5,721.4 881.7,720.5 879.8,720.5Z" style="fill:rgb(125,148,150);fill-rule:nonzero;"/>
                    <path d="M644.2,705L632.9,705C630.5,705 628.4,706.1 628.2,707.4L627.4,713.1C627.2,714.5 629,715.6 631.4,715.6L642.9,715.6C645.3,715.6 647.4,714.5 647.6,713.1L648.2,707.4C648.4,706.1 646.5,705 644.2,705Z" style="fill:rgb(125,148,150);fill-rule:nonzero;"/>
                    <path d="M617.5,705L606.2,705C603.8,705 601.7,706.1 601.4,707.4L600.3,713.1C600,714.5 601.8,715.6 604.2,715.6L615.7,715.6C618.1,715.6 620.3,714.5 620.5,713.1L621.4,707.4C621.6,706.1 619.9,705 617.5,705Z" style="fill:rgb(125,148,150);fill-rule:nonzero;"/>
                    <path d="M670.8,705L659.5,705C657.1,705 655.1,706.1 655,707.4L654.5,713.1C654.4,714.5 656.2,715.6 658.7,715.6L670.2,715.6C672.6,715.6 674.7,714.5 674.7,713.1L675,707.4C675.1,706.1 673.2,705 670.8,705Z" style="fill:rgb(125,148,150);fill-rule:nonzero;"/>
                    <path d="M697.5,705L686.2,705C683.8,705 681.8,706.1 681.8,707.4L681.6,713.1C681.5,714.5 683.5,715.6 685.9,715.6L697.4,715.6C699.8,715.6 701.8,714.5 701.8,713.1L701.8,707.4C701.9,706.1 699.9,705 697.5,705Z" style="fill:rgb(125,148,150);fill-rule:nonzero;"/>
                    <path d="M724.2,705L712.9,705C710.5,705 708.6,706.1 708.6,707.4L708.7,713.1C708.7,714.5 710.7,715.6 713.2,715.6L724.7,715.6C727.1,715.6 729,714.5 729,713.1L728.7,707.4C728.6,706.1 726.6,705 724.2,705Z" style="fill:rgb(125,148,150);fill-rule:nonzero;"/>
                    <path d="M750.9,705L739.6,705C737.2,705 735.4,706.1 735.5,707.4L735.9,713.1C736,714.5 738.1,715.6 740.5,715.6L752,715.6C754.4,715.6 756.3,714.5 756.1,713.1L755.5,707.4C755.3,706.1 753.3,705 750.9,705Z" style="fill:rgb(125,148,150);fill-rule:nonzero;"/>
                    <path d="M777.6,705L766.3,705C763.9,705 762.1,706.1 762.3,707.4L763,713.1C763.2,714.5 765.3,715.6 767.7,715.6L779.2,715.6C781.6,715.6 783.4,714.5 783.2,713.1L782.3,707.4C782.1,706.1 780,705 777.6,705Z" style="fill:rgb(125,148,150);fill-rule:nonzero;"/>
                    <path d="M795,715.6L806.5,715.6C808.9,715.6 810.7,714.5 810.4,713.1L809.1,707.4C808.8,706 806.6,705 804.2,705L793,705C790.6,705 788.9,706.1 789.1,707.4L790.1,713.1C790.4,714.5 792.6,715.6 795,715.6Z" style="fill:rgb(125,148,150);fill-rule:nonzero;"/>
                    <path d="M874.9,705L824.4,705C823.2,705 822.3,705.6 822.5,706.3L824.5,714.4C824.7,715.1 825.9,715.7 827.1,715.7L878.7,715.7C880,715.7 880.8,715.1 880.5,714.4L877.6,706.3C877.3,705.5 876.1,705 874.9,705Z" style="fill:rgb(125,148,150);fill-rule:nonzero;"/>
                    <path d="M614,690.7L600.7,690.7C599,690.7 597.5,691.4 597.3,692.4L595.9,699.1C595.7,700 596.9,700.8 598.6,700.8L612.2,700.8C613.9,700.8 615.4,700 615.6,699.1L616.8,692.4C616.9,691.4 615.7,690.7 614,690.7Z" style="fill:rgb(125,148,150);fill-rule:nonzero;"/>
                    <path d="M639.9,690.7L626.6,690.7C624.9,690.7 623.5,691.4 623.3,692.4L622.2,699.1C622,700 623.3,700.8 625,700.8L638.6,700.8C640.3,700.8 641.8,700 641.9,699.1L642.7,692.4C642.8,691.4 641.5,690.7 639.9,690.7Z" style="fill:rgb(125,148,150);fill-rule:nonzero;"/>
                    <path d="M665.8,690.7L652.5,690.7C650.8,690.7 649.4,691.4 649.3,692.4L648.6,699.1C648.5,700 649.8,700.8 651.5,700.8L665,700.8C666.7,700.8 668.1,700 668.2,699.1L668.6,692.4C668.7,691.4 667.4,690.7 665.8,690.7Z" style="fill:rgb(125,148,150);fill-rule:nonzero;"/>
                    <path d="M691.6,690.7L678.3,690.7C676.6,690.7 675.3,691.4 675.2,692.4L674.8,699.1C674.7,700 676.1,700.8 677.8,700.8L691.4,700.8C693.1,700.8 694.5,700 694.5,699.1L694.6,692.4C694.6,691.4 693.3,690.7 691.6,690.7Z" style="fill:rgb(125,148,150);fill-rule:nonzero;"/>
                    <path d="M717.5,690.7L704.2,690.7C702.5,690.7 701.2,691.4 701.2,692.4L701.2,699.1C701.2,700 702.6,700.8 704.3,700.8L717.9,700.8C719.6,700.8 720.9,700 720.9,699.1L720.6,692.4C720.6,691.4 719.2,690.7 717.5,690.7Z" style="fill:rgb(125,148,150);fill-rule:nonzero;"/>
                    <path d="M743.4,690.7L730.1,690.7C728.4,690.7 727.1,691.4 727.2,692.4L727.6,699.1C727.7,700 729.1,700.8 730.8,700.8L744.4,700.8C746.1,700.8 747.4,700 747.3,699.1L746.7,692.4C746.5,691.4 745.1,690.7 743.4,690.7Z" style="fill:rgb(125,148,150);fill-rule:nonzero;"/>
                    <path d="M769.3,690.7L756,690.7C754.3,690.7 753.1,691.4 753.2,692.4L753.9,699.1C754,700 755.5,700.8 757.2,700.8L770.8,700.8C772.5,700.8 773.8,700 773.6,699.1L772.6,692.4C772.4,691.4 771,690.7 769.3,690.7Z" style="fill:rgb(125,148,150);fill-rule:nonzero;"/>
                    <path d="M795.2,690.7L781.9,690.7C780.2,690.7 779,691.4 779.2,692.4L780.3,699.1C780.5,700 782,700.8 783.7,700.8L797.3,700.8C799,700.8 800.2,700 800,699.1L798.6,692.4C798.3,691.4 796.8,690.7 795.2,690.7Z" style="fill:rgb(125,148,150);fill-rule:nonzero;"/>
                    <path d="M821.1,690.7L807.8,690.7C806.1,690.7 805,691.4 805.2,692.4L806.7,699.1C806.9,700 808.5,700.8 810.1,700.8L823.7,700.8C825.4,700.8 826.6,700 826.3,699.1L824.6,692.4C824.3,691.4 822.7,690.7 821.1,690.7Z" style="fill:rgb(125,148,150);fill-rule:nonzero;"/>
                    <path d="M875.3,699.8L872.3,691.5C872.1,691.1 871.4,690.7 870.5,690.7L832.1,690.7C831.3,690.7 830.7,691.1 830.9,691.5L833.2,699.8C833.3,700.3 834.1,700.6 834.9,700.6L874.1,700.6C874.9,700.7 875.4,700.3 875.3,699.8Z" style="fill:rgb(125,148,150);fill-rule:nonzero;"/>
                </g>
                <path d="M759.3,764.9L637.6,764.9C628.8,764.9 621.2,769 620.4,774.1L615.9,805.5C615.1,811.3 622.1,816.2 631.7,816.2L764.7,816.2C774.3,816.2 781.4,811.4 780.6,805.5L776.3,774.1C775.7,769 768,764.9 759.3,764.9Z" style="fill:white;fill-rule:nonzero;"/>
            </g>
            <rect x="576.9" y="676.4" width="245.9" height="9.3" style="fill:rgb(125,148,150);"/>
        </g>
        <g transform="matrix(0.548619,0,0,0.548619,-190.538,-140.808)">
            <rect x="495.3" y="306" width="384.6" height="199.8" style="fill:rgb(96,93,93);"/>
        </g>
        <g transform="matrix(0.548619,0,0,0.548619,-190.538,-140.808)">
            <rect x="495.3" y="306" width="384.6" height="34.7" style="fill:rgb(229,229,229);"/>
        </g>
        <g transform="matrix(0.548619,0,0,0.548619,-190.538,-140.808)">
            <circle cx="517.9" cy="323.7" r="7.1" style="fill:rgb(87,189,144);"/>
            <circle cx="550.4" cy="323.7" r="7.1" style="fill:rgb(255,89,48);"/>
            <circle cx="583.8" cy="323.7" r="7.1" style="fill:rgb(142,201,250);"/>
        </g>
        <g transform="matrix(0.548619,0,0,0.548619,-190.538,-140.808)">
            <rect x="560.9" y="375" width="70.4" height="5.9" style="fill:rgb(255,89,48);"/>
            <rect x="560.9" y="457.3" width="70.4" height="5.9" style="fill:rgb(255,89,48);"/>
            <rect x="567.3" y="387.6" width="88" height="5.9" style="fill:rgb(87,189,144);"/>
            <rect x="567.3" y="442.3" width="80.2" height="5.9" style="fill:rgb(87,189,144);"/>
            <rect x="653.5" y="442.3" width="20" height="5.9" style="fill:rgb(142,201,250);"/>
            <rect x="567.3" y="402.4" width="98.9" height="5.9" style="fill:rgb(142,201,250);"/>
            <rect x="567.3" y="415.7" width="88" height="5.9" style="fill:rgb(87,189,144);"/>
            <rect x="567.3" y="429.3" width="106.4" height="5.9" style="fill:rgb(255,89,48);"/>
            <rect x="662" y="415.7" width="25.6" height="5.9" style="fill:rgb(255,89,48);"/>
            <rect x="672.9" y="402.4" width="75.8" height="5.9" style="fill:rgb(142,201,250);"/>
            <rect x="660.1" y="387.6" width="38.3" height="5.9" style="fill:rgb(87,189,144);"/>
            <g>
                <path d="M575.4,369.6L566,363.8L566,361.7L575.4,355.9L575.4,358.9L568.9,362.7L575.4,366.6L575.4,369.6Z" style="fill:rgb(87,189,144);fill-rule:nonzero;"/>
                <path d="M587.7,352.9L580.4,372.4L577,372.4L584.3,352.9L587.7,352.9Z" style="fill:rgb(87,189,144);fill-rule:nonzero;"/>
                <path d="M589.3,366.6L595.8,362.7L589.3,358.9L589.3,355.9L598.7,361.7L598.7,363.8L589.3,369.6L589.3,366.6Z" style="fill:rgb(87,189,144);fill-rule:nonzero;"/>
            </g>
            <g>
                <path d="M575.4,488.4L566,482.6L566,480.5L575.4,474.7L575.4,477.7L568.9,481.5L575.4,485.4L575.4,488.4Z" style="fill:rgb(87,189,144);fill-rule:nonzero;"/>
                <path d="M587.7,471.7L580.4,491.2L577,491.2L584.3,471.7L587.7,471.7Z" style="fill:rgb(87,189,144);fill-rule:nonzero;"/>
                <path d="M589.3,485.4L595.8,481.5L589.3,477.7L589.3,474.7L598.7,480.5L598.7,482.6L589.3,488.4L589.3,485.4Z" style="fill:rgb(87,189,144);fill-rule:nonzero;"/>
            </g>
        </g>
        <g transform="matrix(0.548619,0,0,0.548619,-190.538,-140.808)">
            <rect x="542.2" y="353.9" width="5.1" height="139.7" style="fill:rgb(255,89,48);"/>
        </g>
        <g transform="matrix(0.548619,0,0,0.548619,-190.538,-138.614)">
            <circle cx="525.5" cy="365.7" r="5.3" style="fill:rgb(142,201,250);"/>
            <circle cx="525.5" cy="388.3" r="5.3" style="fill:rgb(142,201,250);"/>
            <circle cx="525.5" cy="410.9" r="5.3" style="fill:rgb(142,201,250);"/>
            <circle cx="525.5" cy="433.5" r="5.3" style="fill:rgb(142,201,250);"/>
            <circle cx="525.5" cy="456.1" r="5.3" style="fill:rgb(142,201,250);"/>
            <circle cx="525.5" cy="478.7" r="5.3" style="fill:rgb(142,201,250);"/>
        </g>
    </g>
    <g transform="matrix(0.366353,0,0,0.366353,359.755,-109.077)">
        <path d="M989.8,1155.1L574.1,1155.1C537.3,1155.1 507.4,1125.2 507.4,1088.4L507.4,382.8C507.4,346 537.3,316.1 574.1,316.1L989.8,316.1C1026.6,316.1 1056.5,346 1056.5,382.8L1056.5,1088.4C1056.5,1125.3 1026.6,1155.1 989.8,1155.1Z" style="fill:rgb(50,64,133);fill-rule:nonzero;"/>
        <g>
            <rect x="577.6" y="390.3" width="408.7" height="73.9" style="fill:rgb(90,115,184);"/>
            <g>
                <path d="M802.3,406.4L604.2,406.4C599.5,406.4 595.6,410.2 595.6,415C595.6,419.7 599.4,423.6 604.2,423.6L802.4,423.6C807.1,423.6 811,419.8 811,415C810.9,410.3 807.1,406.4 802.3,406.4Z" style="fill:rgb(207,219,57);fill-rule:nonzero;"/>
                <path d="M802.3,430.9L604.2,430.9C599.5,430.9 595.6,434.7 595.6,439.5C595.6,444.2 599.4,448.1 604.2,448.1L802.4,448.1C807.1,448.1 811,444.3 811,439.5C810.9,434.8 807.1,430.9 802.3,430.9Z" style="fill:rgb(207,219,57);fill-rule:nonzero;"/>
            </g>
            <g>
                <path d="M850.6,409.8L841.4,409.8L841.4,412.4C836.4,415.5 833.1,421 833.1,427.3C833.1,433.6 836.4,439.1 841.4,442.2L841.4,444.8L850.6,444.8C860.3,444.8 868.1,437 868.1,427.3C868.1,417.6 860.3,409.8 850.6,409.8Z" style="fill:rgb(34,53,107);fill-rule:nonzero;"/>
                <circle cx="841.4" cy="427.3" r="17.5" style="fill:rgb(50,64,133);"/>
            </g>
            <g>
                <rect x="875.5" y="406.4" width="7.2" height="17.2" style="fill:rgb(207,219,57);"/>
                <rect x="885.7" y="406.4" width="7.2" height="17.2" style="fill:rgb(207,219,57);"/>
                <rect x="896" y="406.4" width="7.2" height="17.2" style="fill:rgb(207,219,57);"/>
                <rect x="906.2" y="406.4" width="7.2" height="17.2" style="fill:rgb(207,219,57);"/>
                <rect x="916.5" y="406.4" width="7.2" height="17.2" style="fill:rgb(207,219,57);"/>
                <rect x="926.7" y="406.4" width="7.2" height="17.2" style="fill:rgb(207,219,57);"/>
                <rect x="937" y="406.4" width="7.2" height="17.2" style="fill:rgb(207,219,57);"/>
                <rect x="947.2" y="406.4" width="7.2" height="17.2" style="fill:rgb(207,219,57);"/>
                <rect x="957.5" y="406.4" width="7.2" height="17.2" style="fill:rgb(207,219,57);"/>
                <rect x="967.7" y="406.4" width="7.2" height="17.2" style="fill:rgb(207,219,57);"/>
                <rect x="875.5" y="430.9" width="7.2" height="17.2" style="fill:rgb(207,219,57);"/>
                <rect x="885.7" y="430.9" width="7.2" height="17.2" style="fill:rgb(207,219,57);"/>
                <rect x="896" y="430.9" width="7.2" height="17.2" style="fill:rgb(207,219,57);"/>
                <rect x="906.2" y="430.9" width="7.2" height="17.2" style="fill:rgb(207,219,57);"/>
                <rect x="916.5" y="430.9" width="7.2" height="17.2" style="fill:rgb(207,219,57);"/>
                <rect x="926.7" y="430.9" width="7.2" height="17.2" style="fill:rgb(207,219,57);"/>
                <rect x="937" y="430.9" width="7.2" height="17.2" style="fill:rgb(207,219,57);"/>
                <rect x="947.2" y="430.9" width="7.2" height="17.2" style="fill:rgb(207,219,57);"/>
                <rect x="957.5" y="430.9" width="7.2" height="17.2" style="fill:rgb(207,219,57);"/>
                <rect x="967.7" y="430.9" width="7.2" height="17.2" style="fill:rgb(207,219,57);"/>
            </g>
        </g>
        <g>
            <rect x="577.6" y="490.3" width="408.7" height="73.9" style="fill:rgb(90,115,184);"/>
            <g>
                <path d="M802.3,506.4L604.2,506.4C599.5,506.4 595.6,510.2 595.6,515C595.6,519.7 599.4,523.6 604.2,523.6L802.4,523.6C807.1,523.6 811,519.8 811,515C810.9,510.3 807.1,506.4 802.3,506.4Z" style="fill:rgb(207,219,57);fill-rule:nonzero;"/>
                <path d="M802.3,530.9L604.2,530.9C599.5,530.9 595.6,534.7 595.6,539.5C595.6,544.2 599.4,548.1 604.2,548.1L802.4,548.1C807.1,548.1 811,544.3 811,539.5C810.9,534.8 807.1,530.9 802.3,530.9Z" style="fill:rgb(207,219,57);fill-rule:nonzero;"/>
            </g>
            <g>
                <path d="M850.6,509.8L841.4,509.8L841.4,512.4C836.4,515.5 833.1,521 833.1,527.3C833.1,533.6 836.4,539.1 841.4,542.2L841.4,544.8L850.6,544.8C860.3,544.8 868.1,537 868.1,527.3C868.1,517.6 860.3,509.8 850.6,509.8Z" style="fill:rgb(34,53,107);fill-rule:nonzero;"/>
                <circle cx="841.4" cy="527.3" r="17.5" style="fill:rgb(50,64,133);"/>
            </g>
            <g>
                <rect x="875.5" y="506.4" width="7.2" height="17.2" style="fill:rgb(207,219,57);"/>
                <rect x="885.7" y="506.4" width="7.2" height="17.2" style="fill:rgb(207,219,57);"/>
                <rect x="896" y="506.4" width="7.2" height="17.2" style="fill:rgb(207,219,57);"/>
                <rect x="906.2" y="506.4" width="7.2" height="17.2" style="fill:rgb(207,219,57);"/>
                <rect x="916.5" y="506.4" width="7.2" height="17.2" style="fill:rgb(207,219,57);"/>
                <rect x="926.7" y="506.4" width="7.2" height="17.2" style="fill:rgb(207,219,57);"/>
                <rect x="937" y="506.4" width="7.2" height="17.2" style="fill:rgb(207,219,57);"/>
                <rect x="947.2" y="506.4" width="7.2" height="17.2" style="fill:rgb(207,219,57);"/>
                <rect x="957.5" y="506.4" width="7.2" height="17.2" style="fill:rgb(207,219,57);"/>
                <rect x="967.7" y="506.4" width="7.2" height="17.2" style="fill:rgb(207,219,57);"/>
                <rect x="875.5" y="530.9" width="7.2" height="17.2" style="fill:rgb(207,219,57);"/>
                <rect x="885.7" y="530.9" width="7.2" height="17.2" style="fill:rgb(207,219,57);"/>
                <rect x="896" y="530.9" width="7.2" height="17.2" style="fill:rgb(207,219,57);"/>
                <rect x="906.2" y="530.9" width="7.2" height="17.2" style="fill:rgb(207,219,57);"/>
                <rect x="916.5" y="530.9" width="7.2" height="17.2" style="fill:rgb(207,219,57);"/>
                <rect x="926.7" y="530.9" width="7.2" height="17.2" style="fill:rgb(207,219,57);"/>
                <rect x="937" y="530.9" width="7.2" height="17.2" style="fill:rgb(207,219,57);"/>
                <rect x="947.2" y="530.9" width="7.2" height="17.2" style="fill:rgb(207,219,57);"/>
                <rect x="957.5" y="530.9" width="7.2" height="17.2" style="fill:rgb(207,219,57);"/>
                <rect x="967.7" y="530.9" width="7.2" height="17.2" style="fill:rgb(207,219,57);"/>
            </g>
        </g>
        <g>
            <rect x="577.6" y="590.3" width="408.7" height="73.9" style="fill:rgb(90,115,184);"/>
            <g>
                <path d="M802.3,606.4L604.2,606.4C599.5,606.4 595.6,610.2 595.6,615C595.6,619.7 599.4,623.6 604.2,623.6L802.4,623.6C807.1,623.6 811,619.8 811,615C810.9,610.3 807.1,606.4 802.3,606.4Z" style="fill:rgb(207,219,57);fill-rule:nonzero;"/>
                <path d="M802.3,630.9L604.2,630.9C599.5,630.9 595.6,634.7 595.6,639.5C595.6,644.2 599.4,648.1 604.2,648.1L802.4,648.1C807.1,648.1 811,644.3 811,639.5C810.9,634.8 807.1,630.9 802.3,630.9Z" style="fill:rgb(207,219,57);fill-rule:nonzero;"/>
            </g>
            <g>
                <path d="M850.6,609.8L841.4,609.8L841.4,612.4C836.4,615.5 833.1,621 833.1,627.3C833.1,633.6 836.4,639.1 841.4,642.2L841.4,644.8L850.6,644.8C860.3,644.8 868.1,637 868.1,627.3C868.1,617.6 860.3,609.8 850.6,609.8Z" style="fill:rgb(34,53,107);fill-rule:nonzero;"/>
                <circle cx="841.4" cy="627.3" r="17.5" style="fill:rgb(50,64,133);"/>
            </g>
            <g>
                <rect x="875.5" y="606.4" width="7.2" height="17.2" style="fill:rgb(207,219,57);"/>
                <rect x="885.7" y="606.4" width="7.2" height="17.2" style="fill:rgb(207,219,57);"/>
                <rect x="896" y="606.4" width="7.2" height="17.2" style="fill:rgb(207,219,57);"/>
                <rect x="906.2" y="606.4" width="7.2" height="17.2" style="fill:rgb(207,219,57);"/>
                <rect x="916.5" y="606.4" width="7.2" height="17.2" style="fill:rgb(207,219,57);"/>
                <rect x="926.7" y="606.4" width="7.2" height="17.2" style="fill:rgb(207,219,57);"/>
                <rect x="937" y="606.4" width="7.2" height="17.2" style="fill:rgb(207,219,57);"/>
                <rect x="947.2" y="606.4" width="7.2" height="17.2" style="fill:rgb(207,219,57);"/>
                <rect x="957.5" y="606.4" width="7.2" height="17.2" style="fill:rgb(207,219,57);"/>
                <rect x="967.7" y="606.4" width="7.2" height="17.2" style="fill:rgb(207,219,57);"/>
                <rect x="875.5" y="630.9" width="7.2" height="17.2" style="fill:rgb(207,219,57);"/>
                <rect x="885.7" y="630.9" width="7.2" height="17.2" style="fill:rgb(207,219,57);"/>
                <rect x="896" y="630.9" width="7.2" height="17.2" style="fill:rgb(207,219,57);"/>
                <rect x="906.2" y="630.9" width="7.2" height="17.2" style="fill:rgb(207,219,57);"/>
                <rect x="916.5" y="630.9" width="7.2" height="17.2" style="fill:rgb(207,219,57);"/>
                <rect x="926.7" y="630.9" width="7.2" height="17.2" style="fill:rgb(207,219,57);"/>
                <rect x="937" y="630.9" width="7.2" height="17.2" style="fill:rgb(207,219,57);"/>
                <rect x="947.2" y="630.9" width="7.2" height="17.2" style="fill:rgb(207,219,57);"/>
                <rect x="957.5" y="630.9" width="7.2" height="17.2" style="fill:rgb(207,219,57);"/>
                <rect x="967.7" y="630.9" width="7.2" height="17.2" style="fill:rgb(207,219,57);"/>
            </g>
        </g>
        <g>
            <rect x="577.6" y="690.3" width="408.7" height="73.9" style="fill:rgb(90,115,184);"/>
            <g>
                <path d="M802.3,706.4L604.2,706.4C599.5,706.4 595.6,710.2 595.6,715C595.6,719.7 599.4,723.6 604.2,723.6L802.4,723.6C807.1,723.6 811,719.8 811,715C810.9,710.3 807.1,706.4 802.3,706.4Z" style="fill:rgb(207,219,57);fill-rule:nonzero;"/>
                <path d="M802.3,730.9L604.2,730.9C599.5,730.9 595.6,734.7 595.6,739.5C595.6,744.2 599.4,748.1 604.2,748.1L802.4,748.1C807.1,748.1 811,744.3 811,739.5C810.9,734.8 807.1,730.9 802.3,730.9Z" style="fill:rgb(207,219,57);fill-rule:nonzero;"/>
            </g>
            <g>
                <path d="M850.6,709.8L841.4,709.8L841.4,712.4C836.4,715.5 833.1,721 833.1,727.3C833.1,733.6 836.4,739.1 841.4,742.2L841.4,744.8L850.6,744.8C860.3,744.8 868.1,737 868.1,727.3C868.1,717.6 860.3,709.8 850.6,709.8Z" style="fill:rgb(34,53,107);fill-rule:nonzero;"/>
                <circle cx="841.4" cy="727.3" r="17.5" style="fill:rgb(50,64,133);"/>
            </g>
            <g>
                <rect x="875.5" y="706.4" width="7.2" height="17.2" style="fill:rgb(207,219,57);"/>
                <rect x="885.7" y="706.4" width="7.2" height="17.2" style="fill:rgb(207,219,57);"/>
                <rect x="896" y="706.4" width="7.2" height="17.2" style="fill:rgb(207,219,57);"/>
                <rect x="906.2" y="706.4" width="7.2" height="17.2" style="fill:rgb(207,219,57);"/>
                <rect x="916.5" y="706.4" width="7.2" height="17.2" style="fill:rgb(207,219,57);"/>
                <rect x="926.7" y="706.4" width="7.2" height="17.2" style="fill:rgb(207,219,57);"/>
                <rect x="937" y="706.4" width="7.2" height="17.2" style="fill:rgb(207,219,57);"/>
                <rect x="947.2" y="706.4" width="7.2" height="17.2" style="fill:rgb(207,219,57);"/>
                <rect x="957.5" y="706.4" width="7.2" height="17.2" style="fill:rgb(207,219,57);"/>
                <rect x="967.7" y="706.4" width="7.2" height="17.2" style="fill:rgb(207,219,57);"/>
                <rect x="875.5" y="730.9" width="7.2" height="17.2" style="fill:rgb(207,219,57);"/>
                <rect x="885.7" y="730.9" width="7.2" height="17.2" style="fill:rgb(207,219,57);"/>
                <rect x="896" y="730.9" width="7.2" height="17.2" style="fill:rgb(207,219,57);"/>
                <rect x="906.2" y="730.9" width="7.2" height="17.2" style="fill:rgb(207,219,57);"/>
                <rect x="916.5" y="730.9" width="7.2" height="17.2" style="fill:rgb(207,219,57);"/>
                <rect x="926.7" y="730.9" width="7.2" height="17.2" style="fill:rgb(207,219,57);"/>
                <rect x="937" y="730.9" width="7.2" height="17.2" style="fill:rgb(207,219,57);"/>
                <rect x="947.2" y="730.9" width="7.2" height="17.2" style="fill:rgb(207,219,57);"/>
                <rect x="957.5" y="730.9" width="7.2" height="17.2" style="fill:rgb(207,219,57);"/>
                <rect x="967.7" y="730.9" width="7.2" height="17.2" style="fill:rgb(207,219,57);"/>
            </g>
        </g>
        <g>
            <rect x="577.6" y="790.3" width="408.7" height="73.9" style="fill:rgb(90,115,184);"/>
            <g>
                <path d="M802.3,806.4L604.2,806.4C599.5,806.4 595.6,810.2 595.6,815C595.6,819.7 599.4,823.6 604.2,823.6L802.4,823.6C807.1,823.6 811,819.8 811,815C810.9,810.3 807.1,806.4 802.3,806.4Z" style="fill:rgb(207,219,57);fill-rule:nonzero;"/>
                <path d="M802.3,830.9L604.2,830.9C599.5,830.9 595.6,834.7 595.6,839.5C595.6,844.2 599.4,848.1 604.2,848.1L802.4,848.1C807.1,848.1 811,844.3 811,839.5C810.9,834.8 807.1,830.9 802.3,830.9Z" style="fill:rgb(207,219,57);fill-rule:nonzero;"/>
            </g>
            <g>
                <path d="M850.6,809.8L841.4,809.8L841.4,812.4C836.4,815.5 833.1,821 833.1,827.3C833.1,833.6 836.4,839.1 841.4,842.2L841.4,844.8L850.6,844.8C860.3,844.8 868.1,837 868.1,827.3C868.1,817.6 860.3,809.8 850.6,809.8Z" style="fill:rgb(34,53,107);fill-rule:nonzero;"/>
                <circle cx="841.4" cy="827.3" r="17.5" style="fill:rgb(50,64,133);"/>
            </g>
            <g>
                <rect x="875.5" y="806.4" width="7.2" height="17.2" style="fill:rgb(207,219,57);"/>
                <rect x="885.7" y="806.4" width="7.2" height="17.2" style="fill:rgb(207,219,57);"/>
                <rect x="896" y="806.4" width="7.2" height="17.2" style="fill:rgb(207,219,57);"/>
                <rect x="906.2" y="806.4" width="7.2" height="17.2" style="fill:rgb(207,219,57);"/>
                <rect x="916.5" y="806.4" width="7.2" height="17.2" style="fill:rgb(207,219,57);"/>
                <rect x="926.7" y="806.4" width="7.2" height="17.2" style="fill:rgb(207,219,57);"/>
                <rect x="937" y="806.4" width="7.2" height="17.2" style="fill:rgb(207,219,57);"/>
                <rect x="947.2" y="806.4" width="7.2" height="17.2" style="fill:rgb(207,219,57);"/>
                <rect x="957.5" y="806.4" width="7.2" height="17.2" style="fill:rgb(207,219,57);"/>
                <rect x="967.7" y="806.4" width="7.2" height="17.2" style="fill:rgb(207,219,57);"/>
                <rect x="875.5" y="830.9" width="7.2" height="17.2" style="fill:rgb(207,219,57);"/>
                <rect x="885.7" y="830.9" width="7.2" height="17.2" style="fill:rgb(207,219,57);"/>
                <rect x="896" y="830.9" width="7.2" height="17.2" style="fill:rgb(207,219,57);"/>
                <rect x="906.2" y="830.9" width="7.2" height="17.2" style="fill:rgb(207,219,57);"/>
                <rect x="916.5" y="830.9" width="7.2" height="17.2" style="fill:rgb(207,219,57);"/>
                <rect x="926.7" y="830.9" width="7.2" height="17.2" style="fill:rgb(207,219,57);"/>
                <rect x="937" y="830.9" width="7.2" height="17.2" style="fill:rgb(207,219,57);"/>
                <rect x="947.2" y="830.9" width="7.2" height="17.2" style="fill:rgb(207,219,57);"/>
                <rect x="957.5" y="830.9" width="7.2" height="17.2" style="fill:rgb(207,219,57);"/>
                <rect x="967.7" y="830.9" width="7.2" height="17.2" style="fill:rgb(207,219,57);"/>
            </g>
        </g>
        <rect x="577.6" y="894.3" width="408.7" height="195" style="fill:rgb(90,115,184);"/>
        <g>
            <rect x="589.5" y="904.5" width="34" height="32.6" style="fill:rgb(207,219,57);"/>
            <rect x="589.5" y="950.8" width="34" height="32.6" style="fill:rgb(207,219,57);"/>
            <rect x="589.5" y="997" width="34" height="32.6" style="fill:rgb(207,219,57);"/>
            <rect x="589.5" y="1043.3" width="34" height="32.6" style="fill:rgb(207,219,57);"/>
            <rect x="637.5" y="904.5" width="34" height="32.6" style="fill:rgb(207,219,57);"/>
            <rect x="637.5" y="950.8" width="34" height="32.6" style="fill:rgb(207,219,57);"/>
            <rect x="637.5" y="997" width="34" height="32.6" style="fill:rgb(207,219,57);"/>
            <rect x="637.5" y="1043.3" width="34" height="32.6" style="fill:rgb(207,219,57);"/>
            <rect x="685.4" y="904.5" width="34" height="32.6" style="fill:rgb(207,219,57);"/>
            <rect x="685.4" y="950.8" width="34" height="32.6" style="fill:rgb(207,219,57);"/>
            <rect x="685.4" y="997" width="34" height="32.6" style="fill:rgb(207,219,57);"/>
            <rect x="685.4" y="1043.3" width="34" height="32.6" style="fill:rgb(207,219,57);"/>
            <rect x="733.4" y="904.5" width="34" height="32.6" style="fill:rgb(207,219,57);"/>
            <rect x="733.4" y="950.8" width="34" height="32.6" style="fill:rgb(207,219,57);"/>
            <rect x="733.4" y="997" width="34" height="32.6" style="fill:rgb(207,219,57);"/>
            <rect x="733.4" y="1043.3" width="34" height="32.6" style="fill:rgb(207,219,57);"/>
            <rect x="781.4" y="904.5" width="34" height="32.6" style="fill:rgb(207,219,57);"/>
            <rect x="781.4" y="950.8" width="34" height="32.6" style="fill:rgb(207,219,57);"/>
            <rect x="781.4" y="997" width="34" height="32.6" style="fill:rgb(207,219,57);"/>
            <rect x="781.4" y="1043.3" width="34" height="32.6" style="fill:rgb(207,219,57);"/>
            <rect x="829.3" y="904.5" width="34" height="32.6" style="fill:rgb(207,219,57);"/>
            <rect x="829.3" y="950.8" width="34" height="32.6" style="fill:rgb(207,219,57);"/>
            <rect x="829.3" y="997" width="34" height="32.6" style="fill:rgb(207,219,57);"/>
            <rect x="829.3" y="1043.3" width="34" height="32.6" style="fill:rgb(207,219,57);"/>
            <rect x="877.3" y="904.5" width="34" height="32.6" style="fill:rgb(207,219,57);"/>
            <rect x="877.3" y="950.8" width="34" height="32.6" style="fill:rgb(207,219,57);"/>
            <rect x="877.3" y="997" width="34" height="32.6" style="fill:rgb(207,219,57);"/>
            <rect x="877.3" y="1043.3" width="34" height="32.6" style="fill:rgb(207,219,57);"/>
            <g>
                <path d="M936.1,904.5C931.2,904.5 927.3,908.3 927.3,912.9L927.3,1004.9C927.3,1009.6 931.2,1013.3 936.1,1013.3C941,1013.3 944.9,1009.5 944.9,1004.9L944.9,912.9C944.9,908.3 941,904.5 936.1,904.5Z" style="fill:rgb(207,219,57);fill-rule:nonzero;"/>
                <path d="M962.5,904.5C957.6,904.5 953.7,908.3 953.7,912.9L953.7,1004.9C953.7,1009.6 957.6,1013.3 962.5,1013.3C967.4,1013.3 971.3,1009.5 971.3,1004.9L971.3,912.9C971.3,908.3 967.4,904.5 962.5,904.5Z" style="fill:rgb(207,219,57);fill-rule:nonzero;"/>
            </g>
            <g>
                <path d="M936.1,1023.3C931.2,1023.3 927.3,1027.1 927.3,1031.7L927.3,1067.4C927.3,1072.1 931.2,1075.8 936.1,1075.8C941,1075.8 944.9,1072 944.9,1067.4L944.9,1031.7C944.9,1027.1 941,1023.3 936.1,1023.3Z" style="fill:rgb(207,219,57);fill-rule:nonzero;"/>
                <path d="M962.5,1023.3C957.6,1023.3 953.7,1027.1 953.7,1031.7L953.7,1067.4C953.7,1072.1 957.6,1075.8 962.5,1075.8C967.4,1075.8 971.3,1072 971.3,1067.4L971.3,1031.7C971.3,1027.1 967.4,1023.3 962.5,1023.3Z" style="fill:rgb(207,219,57);fill-rule:nonzero;"/>
            </g>
        </g>
    </g>
</svg>
